# xmcd
#
# Track frame offsets:
#	150
#	14219
#	31340
#	46086
#	60300
#	75364
#	95539
#	110087
#	124577
#	135297
#
# Disc length: 1996 seconds
# Revision: 1
# Processed by: cddbd v1.5.2PL0 Copyright (c) Steve Scherf et al.
# Submitted via: dBpowerAMP V12.0
#
DISCID=7507ca0a
DTITLE=Keith Bryant - Ridin With The Legend
DYEAR=2004
DGENRE=Country
TTITLE0=The Chevys And Fords
TTITLE1=Traditions Sure Run Deep
TTITLE2=The Ballad Of The Old School Bus
TTITLE3=Ridin' With The Legend
TTITLE4=Blood, Sweat And Gears
TTITLE5=Me And Dad
TTITLE6=Out There On Infield
TTITLE7=Drivers' Prayer
TTITLE8=Sons Of Thunder
TTITLE9=The Checkered Flag Is Gold
EXTD=
EXTT0=
EXTT1=
EXTT2=
EXTT3=
EXTT4=
EXTT5=
EXTT6=
EXTT7=
EXTT8=
EXTT9=
PLAYORDER=
